<?xml version="1.0" standalone="no"?>
<!DOCTYPE svg PUBLIC "-//W3C//DTD SVG 20010904//EN"
 "http://www.w3.org/TR/2001/REC-SVG-20010904/DTD/svg10.dtd">
<svg version="1.0" xmlns="http://www.w3.org/2000/svg"
 width="2048.000000pt" height="2048.000000pt" viewBox="0 0 2048.000000 2048.000000"
 preserveAspectRatio="xMidYMid meet">

<g transform="translate(0.000000,2048.000000) scale(0.100000,-0.100000)"
fill="#5523BB" stroke="none">
<path d="M6550 20440 c-2205 -5 -3014 -9 -3040 -17 -19 -7 -96 -17 -170 -23
-208 -17 -540 -80 -745 -141 -233 -70 -749 -315 -945 -448 -8 -6 -31 -21 -50
-34 -225 -149 -364 -263 -549 -447 -180 -178 -277 -293 -393 -465 -132 -194
-270 -447 -332 -610 -15 -38 -33 -83 -41 -100 -7 -16 -38 -106 -69 -200 -87
-269 -136 -496 -167 -785 -12 -103 -11 -13600 0 -13770 11 -153 38 -373 56
-435 7 -27 16 -69 20 -92 4 -24 11 -45 15 -48 5 -3 12 -27 16 -53 12 -83 123
-399 201 -572 75 -166 172 -351 223 -427 18 -26 36 -56 41 -67 5 -12 24 -41
42 -66 67 -93 206 -276 224 -295 10 -11 33 -38 52 -60 44 -52 143 -155 217
-226 68 -64 346 -287 425 -340 95 -64 263 -174 284 -185 11 -6 36 -21 55 -32
19 -12 46 -26 59 -32 12 -6 74 -35 137 -65 62 -30 116 -55 119 -55 3 0 25 -8
48 -19 132 -58 425 -148 597 -184 297 -62 600 -87 1175 -97 264 -5 3126 -9
6360 -10 5320 0 6603 4 6655 24 8 3 76 12 150 20 258 29 433 65 715 150 50 14
222 78 260 96 11 5 49 21 85 35 121 49 249 118 390 209 52 34 109 70 125 80
17 10 53 36 80 57 28 21 61 44 75 51 33 17 110 74 169 123 26 22 71 60 101 85
152 126 248 221 362 359 34 41 73 86 86 100 13 14 42 51 63 81 21 30 64 89 94
130 30 41 64 91 75 110 31 54 88 144 97 155 16 20 171 341 193 400 12 33 28
74 35 90 21 48 46 126 56 177 5 26 16 60 24 75 8 15 15 35 15 44 0 9 7 36 16
60 8 24 20 73 25 108 5 36 14 70 19 76 5 6 14 65 20 131 6 65 16 139 23 164 8
33 11 1838 11 6830 1 3732 -2 6877 -5 6990 -7 212 -24 381 -54 510 -25 111
-63 259 -79 310 -8 25 -24 77 -35 115 -12 39 -28 84 -35 100 -8 17 -24 55 -36
85 -75 186 -146 324 -282 550 -26 42 -89 141 -100 155 -190 248 -342 414 -528
579 -112 99 -181 156 -226 186 -12 8 -76 53 -141 100 -171 124 -386 257 -445
276 -12 4 -45 19 -73 34 -224 121 -567 234 -880 290 -66 12 -147 28 -180 35
-71 17 -309 43 -520 58 -173 11 -5569 15 -10265 7z m4250 -2960 c85 -5 180
-17 210 -25 30 -8 78 -15 106 -15 28 0 70 -6 92 -14 22 -8 66 -18 98 -22 32
-4 72 -12 89 -19 16 -7 52 -16 80 -20 27 -4 58 -13 69 -21 11 -8 33 -14 49
-14 15 0 45 -9 67 -20 22 -11 49 -20 60 -20 11 0 38 -9 60 -20 22 -11 50 -20
63 -20 14 0 30 -7 37 -15 7 -8 20 -15 29 -15 9 0 34 -9 55 -19 21 -11 51 -23
66 -26 16 -3 34 -13 41 -21 6 -8 20 -14 30 -14 17 0 99 -39 123 -59 6 -5 23
-12 38 -16 15 -4 32 -13 38 -20 6 -8 24 -17 40 -20 16 -3 31 -12 33 -20 3 -7
19 -16 36 -20 17 -4 33 -10 36 -15 3 -5 31 -23 63 -41 31 -18 63 -39 70 -46 7
-7 18 -13 23 -13 13 0 72 -41 82 -57 4 -7 14 -13 21 -13 18 0 137 -89 340
-255 106 -87 359 -341 452 -455 38 -46 76 -92 84 -102 16 -17 19 -21 62 -79
43 -58 178 -260 178 -266 0 -4 7 -14 15 -23 15 -17 67 -106 90 -156 7 -17 21
-36 29 -44 9 -7 16 -20 16 -30 0 -9 9 -29 20 -43 11 -14 20 -30 20 -35 0 -5
15 -41 34 -78 44 -89 72 -153 81 -184 4 -14 14 -34 21 -45 8 -11 14 -26 14
-35 0 -8 9 -32 20 -53 11 -20 20 -47 20 -59 1 -13 9 -41 20 -63 11 -22 19 -50
20 -63 0 -13 7 -36 15 -52 9 -16 18 -51 22 -77 3 -27 10 -57 16 -68 6 -11 16
-51 23 -90 7 -38 17 -88 23 -110 5 -22 14 -74 20 -115 5 -41 14 -100 20 -130
17 -85 35 -516 27 -626 -4 -55 -11 -160 -16 -234 -5 -74 -16 -162 -25 -195 -8
-33 -15 -80 -15 -105 0 -25 -7 -57 -14 -72 -8 -15 -18 -53 -22 -85 -4 -32 -12
-67 -19 -78 -7 -11 -16 -42 -20 -70 -4 -27 -13 -58 -21 -69 -8 -11 -14 -31
-14 -43 0 -13 -9 -40 -20 -60 -11 -21 -20 -46 -20 -56 0 -10 -9 -35 -19 -55
-11 -20 -29 -62 -41 -92 -12 -30 -26 -62 -31 -70 -5 -8 -14 -26 -19 -40 -6
-14 -15 -32 -20 -40 -6 -8 -15 -26 -20 -40 -6 -14 -15 -32 -20 -40 -6 -8 -14
-25 -20 -37 -5 -12 -22 -41 -37 -65 -15 -24 -33 -54 -40 -68 -7 -14 -30 -50
-50 -81 -21 -31 -52 -78 -70 -105 -33 -52 -58 -85 -84 -112 -8 -10 -29 -35
-44 -57 -64 -89 -248 -282 -451 -475 -75 -72 -269 -230 -362 -295 -42 -30 -54
-38 -168 -104 -33 -19 -61 -38 -64 -42 -3 -4 -21 -14 -40 -23 -19 -8 -44 -21
-55 -27 -38 -23 -137 -72 -205 -101 -25 -11 -62 -28 -82 -39 -20 -10 -43 -19
-51 -19 -8 0 -20 -6 -26 -14 -7 -8 -27 -18 -44 -22 -18 -4 -48 -15 -67 -25
-19 -11 -42 -19 -51 -19 -9 0 -22 -7 -29 -15 -7 -8 -21 -15 -32 -15 -11 0 -31
-9 -45 -20 -14 -11 -34 -20 -43 -20 -10 0 -23 -7 -30 -15 -6 -8 -21 -17 -31
-20 -65 -21 -262 -183 -324 -266 -25 -33 -65 -109 -65 -122 0 -8 -7 -20 -15
-27 -7 -6 -17 -33 -21 -58 -4 -26 -13 -62 -21 -81 -12 -28 -15 -99 -15 -350
-1 -174 -5 -326 -9 -338 l-9 -23 -1119 0 c-616 0 -1126 3 -1135 6 -14 5 -16
32 -16 193 0 104 7 230 14 286 8 55 17 152 21 215 4 63 13 138 20 165 7 28 16
86 20 130 4 44 13 96 20 115 7 19 16 60 19 91 3 31 13 69 21 85 8 16 15 46 15
67 0 20 9 54 20 74 11 21 20 47 20 58 0 20 31 108 56 158 8 16 14 33 14 38 0
11 45 115 61 139 5 8 12 22 15 30 18 47 79 157 100 181 8 8 14 20 14 25 0 10
94 137 146 199 89 105 234 242 324 307 114 83 151 108 159 108 4 0 16 9 26 20
10 11 22 20 27 20 4 0 30 15 56 33 26 18 58 38 72 45 14 7 43 23 65 37 22 13
49 29 60 35 11 6 38 22 60 35 22 14 51 30 65 37 14 7 47 28 75 46 27 17 55 32
61 32 6 0 17 7 24 16 8 8 27 22 44 30 39 18 135 74 166 97 14 9 28 17 33 17 4
0 13 5 20 10 23 19 88 60 96 60 4 0 16 9 26 20 10 11 23 20 30 20 6 0 36 18
65 40 29 22 58 40 63 40 9 0 18 7 217 158 135 103 324 289 398 393 72 101 102
148 102 160 0 6 9 22 20 36 11 14 20 34 20 43 0 10 6 23 14 29 8 6 19 31 25
56 6 24 15 47 21 50 5 3 10 18 10 33 1 15 8 45 16 67 23 61 49 258 48 365 -1
119 -27 332 -48 385 -8 22 -15 52 -16 66 0 14 -7 34 -15 45 -8 10 -15 28 -15
38 0 11 -9 40 -21 65 -37 83 -62 136 -71 151 -4 8 -14 26 -20 40 -7 14 -27 46
-45 72 -18 26 -33 52 -33 58 0 5 -8 17 -18 27 -10 10 -47 54 -82 98 -35 44
-87 102 -115 129 -59 57 -229 196 -240 196 -4 0 -33 17 -64 37 -61 41 -219
123 -238 123 -6 0 -24 6 -40 14 -48 24 -137 56 -156 56 -10 0 -43 9 -74 20
-32 11 -76 20 -98 20 -23 0 -66 8 -96 18 -80 25 -585 25 -674 -1 -32 -9 -76
-17 -97 -17 -20 0 -60 -9 -88 -20 -28 -11 -63 -20 -78 -20 -15 0 -36 -6 -47
-14 -11 -7 -33 -16 -50 -20 -16 -4 -46 -14 -65 -23 -19 -9 -53 -24 -75 -33
-197 -87 -334 -177 -498 -325 -64 -59 -117 -110 -117 -113 0 -4 -15 -23 -33
-42 -69 -75 -157 -192 -157 -210 0 -6 -7 -13 -15 -16 -8 -3 -17 -15 -20 -25
-4 -11 -22 -43 -41 -72 -19 -28 -34 -57 -34 -63 0 -6 -9 -21 -20 -34 -11 -13
-20 -31 -20 -40 0 -10 -7 -23 -15 -30 -8 -7 -15 -17 -15 -22 0 -9 -13 -42 -64
-163 -28 -65 -55 -142 -61 -175 -4 -19 -14 -47 -21 -62 -8 -15 -14 -40 -14
-55 0 -16 -9 -54 -20 -86 -11 -31 -20 -76 -20 -99 0 -24 -9 -76 -20 -117 -11
-41 -20 -94 -20 -117 0 -35 -6 -48 -40 -82 -32 -32 -54 -44 -113 -58 -67 -18
-134 -19 -980 -22 l-907 -2 -10 25 c-11 29 4 318 19 380 6 22 11 72 11 110 0
39 9 106 20 150 11 44 20 96 20 116 0 20 9 65 20 99 11 34 20 76 20 92 0 16 6
44 14 63 8 19 18 56 22 82 3 26 12 59 19 73 7 14 15 45 19 69 4 24 13 53 21
64 8 12 15 35 15 52 1 16 9 48 20 70 11 22 19 48 20 58 0 9 9 34 20 54 11 21
20 45 20 53 0 9 9 33 20 55 11 22 20 47 20 57 0 9 4 20 10 23 5 3 14 25 21 48
6 23 17 49 24 57 7 8 16 29 20 47 3 17 13 37 21 44 8 6 14 20 14 31 0 11 9 31
20 45 11 14 20 34 20 44 0 10 5 21 10 24 6 4 18 24 27 46 8 21 19 39 23 39 5
0 11 13 15 30 4 16 11 33 17 36 5 4 16 21 24 38 8 17 24 45 34 61 11 17 27 44
34 61 8 17 22 36 30 44 9 7 16 16 16 21 0 7 117 187 130 199 3 3 18 25 35 50
16 25 34 50 40 55 6 6 48 57 94 115 109 136 396 425 520 523 54 43 109 88 122
100 30 28 87 67 99 67 5 0 13 6 17 13 9 14 190 137 202 137 4 0 16 9 26 20 10
11 23 20 29 20 6 0 34 15 61 33 28 17 61 38 75 45 14 7 43 23 65 37 48 29 53
31 85 45 14 5 32 14 40 19 8 4 35 17 60 28 25 12 66 30 91 42 25 12 50 21 55
21 6 0 27 9 49 20 22 11 46 20 55 20 8 0 24 7 34 15 11 8 29 15 41 15 11 0 37
9 58 20 20 11 45 20 54 20 10 0 31 7 46 15 15 8 49 19 75 24 26 5 65 16 87 25
22 8 53 15 68 16 15 0 40 6 55 14 15 7 55 16 89 20 35 4 79 14 98 21 19 8 55
15 80 15 25 0 91 9 148 20 191 37 586 45 987 20z m-7350 -9150 c96 -6 200 -15
230 -21 30 -6 111 -17 180 -24 69 -7 141 -17 160 -23 19 -6 73 -13 119 -16 46
-4 92 -11 103 -17 11 -6 61 -15 111 -20 51 -5 110 -15 132 -23 22 -9 62 -15
88 -16 26 0 64 -7 84 -15 19 -8 68 -18 107 -21 39 -4 85 -12 102 -19 17 -7 64
-16 104 -20 40 -4 88 -14 106 -21 18 -8 48 -14 67 -14 18 0 60 -7 92 -16 33
-9 93 -20 134 -25 40 -4 79 -13 86 -19 8 -6 49 -15 92 -20 43 -5 96 -16 118
-24 22 -8 59 -15 83 -16 23 0 58 -6 76 -14 19 -8 65 -17 102 -21 38 -5 83 -14
101 -21 18 -8 48 -14 67 -14 19 0 63 -9 98 -20 34 -11 77 -20 93 -20 17 0 62
-9 100 -20 38 -11 86 -20 106 -20 20 0 52 -6 71 -14 19 -8 59 -18 89 -21 30
-4 70 -13 89 -20 20 -7 62 -16 95 -20 33 -5 74 -14 92 -21 18 -8 44 -14 58
-14 14 0 51 -9 82 -20 32 -11 69 -20 83 -20 14 -1 43 -9 65 -20 22 -11 47 -19
56 -20 9 0 22 -6 28 -14 6 -8 25 -19 41 -26 40 -17 80 -103 80 -173 0 -67 -41
-135 -108 -177 l-47 -31 -145 4 c-80 2 -158 10 -175 16 -66 27 -773 47 -975
28 -168 -16 -225 -68 -137 -124 62 -40 79 -51 107 -65 14 -7 36 -20 49 -30 13
-10 32 -18 41 -18 10 0 23 -6 29 -14 7 -8 30 -17 51 -21 21 -4 44 -13 51 -21
6 -8 19 -14 28 -14 9 -1 34 -9 56 -20 22 -11 49 -20 60 -20 11 0 38 -9 60 -20
22 -11 52 -19 66 -20 15 0 32 -6 38 -14 7 -8 31 -17 54 -21 23 -4 51 -13 62
-20 11 -7 41 -16 65 -20 25 -4 54 -14 65 -21 11 -8 31 -14 45 -14 14 0 45 -9
69 -20 24 -11 55 -20 70 -20 14 -1 44 -9 66 -20 22 -11 55 -19 73 -20 18 0 46
-7 62 -15 16 -9 51 -18 77 -22 27 -3 59 -11 73 -18 14 -7 48 -16 75 -20 28 -4
61 -13 75 -20 14 -7 48 -15 77 -19 28 -4 64 -13 80 -21 15 -8 43 -15 61 -15
18 0 58 -9 89 -20 32 -11 74 -20 95 -20 21 0 54 -7 73 -15 19 -7 63 -17 98
-21 34 -4 78 -13 98 -20 20 -6 67 -15 105 -19 38 -4 86 -14 108 -21 21 -8 59
-14 85 -14 25 0 82 -9 126 -20 44 -11 105 -20 135 -20 31 0 83 -7 115 -16 33
-8 112 -19 175 -24 63 -5 137 -13 164 -20 27 -6 137 -15 245 -20 108 -5 225
-15 261 -22 90 -16 1307 -16 1400 1 36 6 153 16 260 21 107 5 211 14 230 20
19 6 98 15 175 19 77 5 153 14 168 20 16 6 74 15 130 20 56 6 117 14 136 20
19 6 68 13 110 17 42 3 96 12 121 19 25 7 70 16 100 20 30 3 75 12 100 20 25
7 68 16 97 19 28 4 68 13 87 21 19 8 51 15 70 15 20 0 58 9 86 20 28 11 67 20
86 20 19 0 48 7 63 14 15 8 52 18 82 22 30 3 63 12 74 19 11 6 42 15 70 19 27
5 58 14 69 22 11 8 34 14 51 14 17 0 47 9 68 20 20 11 52 20 69 20 18 1 51 9
73 20 22 11 51 19 65 20 14 0 34 6 45 14 11 7 40 18 65 24 63 15 140 41 172
58 14 8 34 14 45 14 10 0 35 9 56 20 20 11 45 20 54 20 10 1 36 9 58 20 22 11
46 19 53 20 6 0 29 9 49 20 21 11 47 20 59 20 12 0 27 6 33 14 7 8 26 17 44
20 18 3 51 15 72 26 22 11 44 20 51 20 6 0 17 7 24 15 7 8 21 15 32 15 11 0
31 9 45 20 14 11 32 20 40 20 22 0 123 75 123 91 0 15 -110 59 -149 59 -22 0
-70 7 -107 16 -54 12 -111 15 -279 11 -248 -5 -410 -19 -660 -57 -52 -8 -65
-6 -100 11 -55 29 -81 55 -107 108 -27 53 -28 121 -4 166 9 17 16 40 16 52 0
24 73 73 109 73 11 0 43 9 71 20 28 11 67 20 86 20 19 0 48 7 64 15 15 8 55
18 87 21 32 4 69 12 83 19 14 7 50 15 80 19 30 4 73 13 95 20 22 8 69 19 105
25 63 10 97 17 190 41 25 6 68 16 95 21 28 6 68 15 90 20 22 6 65 15 95 20 30
6 78 16 105 24 28 8 70 17 95 20 25 4 65 12 90 20 25 7 68 16 95 19 28 4 68
13 90 21 22 8 60 15 85 15 25 0 63 8 85 16 22 8 73 19 114 24 40 5 79 14 85
19 7 6 39 13 72 17 32 3 77 12 99 19 22 8 67 17 100 20 33 4 75 13 94 21 18 8
50 14 71 14 20 0 59 7 86 15 27 9 82 20 123 25 41 5 79 14 86 20 6 5 53 14
103 19 50 5 100 15 111 21 12 6 51 13 89 16 37 4 90 12 117 19 28 8 86 17 130
20 44 4 109 14 145 22 99 24 674 25 745 1 28 -9 76 -20 108 -24 141 -16 257
-95 318 -216 26 -51 29 -68 29 -150 0 -75 -5 -104 -24 -151 -13 -32 -29 -64
-35 -70 -6 -6 -11 -16 -11 -21 0 -16 -72 -117 -167 -238 -93 -117 -309 -333
-428 -428 -44 -35 -96 -79 -115 -97 -19 -19 -53 -46 -75 -61 -22 -15 -45 -31
-51 -37 -6 -5 -23 -19 -39 -30 -15 -11 -40 -30 -55 -42 -15 -13 -33 -23 -38
-23 -6 0 -15 -6 -19 -13 -8 -12 -122 -93 -187 -132 -18 -11 -49 -32 -69 -47
-20 -16 -39 -28 -43 -28 -4 0 -31 -16 -59 -35 -29 -19 -65 -39 -79 -45 -14 -5
-26 -14 -26 -19 0 -5 -16 -15 -35 -21 -19 -6 -35 -15 -35 -19 0 -4 -15 -14
-32 -22 -67 -31 -163 -84 -176 -96 -7 -7 -22 -13 -32 -13 -10 0 -22 -5 -26
-11 -3 -6 -21 -17 -38 -25 -17 -8 -38 -18 -46 -23 -15 -10 -240 -117 -320
-153 -25 -11 -62 -29 -82 -39 -20 -11 -43 -19 -51 -19 -8 0 -20 -7 -27 -15 -7
-8 -20 -15 -29 -15 -9 0 -33 -9 -54 -20 -20 -11 -42 -20 -48 -20 -12 0 -78
-28 -141 -61 -20 -10 -44 -19 -53 -19 -8 0 -32 -9 -52 -20 -21 -11 -47 -20
-59 -20 -12 0 -27 -6 -33 -14 -6 -8 -31 -17 -56 -20 -24 -4 -49 -14 -55 -21
-7 -8 -24 -15 -39 -15 -14 0 -39 -9 -56 -20 -16 -11 -40 -20 -53 -20 -12 0
-40 -9 -62 -20 -22 -11 -50 -20 -62 -20 -13 0 -33 -6 -44 -14 -11 -8 -38 -18
-60 -22 -21 -4 -48 -13 -59 -19 -11 -7 -38 -16 -60 -20 -21 -4 -51 -12 -65
-19 -14 -7 -45 -16 -69 -20 -24 -4 -53 -13 -64 -21 -12 -8 -35 -15 -52 -15
-16 0 -43 -7 -59 -15 -16 -8 -52 -19 -80 -24 -28 -5 -69 -16 -91 -25 -22 -8
-50 -15 -63 -16 -13 0 -35 -6 -50 -14 -15 -7 -51 -16 -81 -20 -30 -4 -66 -13
-80 -20 -14 -7 -50 -16 -80 -19 -29 -4 -59 -11 -66 -17 -7 -6 -43 -14 -81 -19
-38 -5 -86 -16 -106 -25 -21 -9 -54 -16 -75 -16 -21 -1 -56 -7 -78 -15 -22 -8
-62 -17 -90 -21 -27 -3 -70 -12 -95 -19 -25 -7 -70 -16 -100 -20 -30 -3 -75
-12 -100 -19 -25 -8 -76 -17 -114 -21 -38 -3 -78 -11 -90 -17 -12 -6 -61 -15
-111 -19 -49 -4 -117 -15 -150 -23 -32 -9 -82 -16 -110 -16 -27 0 -74 -7 -103
-14 -30 -8 -95 -17 -145 -21 -51 -3 -123 -12 -162 -20 -38 -7 -124 -16 -190
-20 -66 -3 -158 -12 -205 -20 -47 -7 -167 -16 -267 -19 -99 -4 -207 -12 -240
-19 -86 -18 -1537 -17 -1648 1 -44 7 -168 17 -275 22 -107 4 -215 13 -240 18
-25 6 -99 13 -165 17 -66 4 -156 13 -200 20 -44 7 -124 16 -179 20 -54 3 -110
11 -124 16 -14 5 -73 14 -131 20 -58 5 -128 16 -155 24 -27 8 -75 15 -107 15
-31 0 -76 7 -100 15 -24 9 -80 19 -124 24 -45 4 -90 13 -100 19 -11 5 -51 13
-90 17 -38 4 -83 13 -100 20 -16 6 -58 15 -93 19 -34 4 -81 14 -103 22 -23 7
-56 14 -74 14 -18 0 -52 7 -76 16 -24 8 -73 20 -108 25 -36 5 -70 14 -77 20
-6 5 -36 12 -65 16 -30 3 -65 11 -79 18 -14 7 -48 16 -75 20 -28 4 -61 13 -75
20 -14 7 -49 15 -79 19 -30 4 -63 14 -75 22 -11 8 -34 14 -51 14 -16 0 -50 9
-74 20 -24 11 -55 20 -70 20 -14 0 -39 7 -54 15 -15 8 -45 17 -65 21 -20 4
-48 12 -62 19 -14 8 -44 17 -65 21 -22 4 -49 13 -60 19 -11 7 -38 16 -59 20
-22 4 -49 13 -60 21 -11 8 -30 14 -41 14 -11 0 -37 9 -58 20 -20 11 -45 20
-54 20 -10 1 -36 9 -58 20 -22 11 -47 19 -55 20 -9 0 -33 9 -55 20 -22 11 -49
20 -62 20 -12 0 -24 4 -28 9 -3 5 -30 17 -60 25 -30 9 -57 21 -60 26 -3 6 -16
10 -28 10 -13 0 -31 6 -42 14 -11 7 -31 17 -45 21 -24 7 -60 22 -154 65 -24
11 -50 20 -58 20 -9 0 -21 7 -28 15 -7 8 -27 17 -46 21 -18 3 -38 12 -45 20
-6 8 -18 14 -26 14 -8 0 -31 9 -51 20 -20 10 -44 21 -52 24 -8 3 -22 10 -30
15 -8 6 -42 21 -75 36 -33 14 -67 30 -75 35 -8 5 -47 25 -87 45 -40 19 -75 40
-78 45 -3 6 -13 10 -22 10 -8 0 -26 9 -40 20 -14 11 -33 20 -43 20 -9 0 -25 9
-35 20 -10 11 -24 20 -31 20 -7 0 -36 16 -65 35 -30 19 -59 35 -65 35 -6 0
-19 9 -29 20 -10 11 -26 20 -35 20 -9 0 -25 9 -35 20 -10 11 -22 20 -26 20 -5
0 -35 18 -66 40 -32 22 -62 40 -66 40 -5 0 -19 8 -32 18 -12 9 -31 23 -41 29
-64 42 -95 63 -141 96 -29 20 -55 37 -59 37 -3 0 -30 20 -61 45 -30 25 -58 45
-62 45 -3 0 -21 13 -39 30 -18 16 -58 50 -90 75 -119 96 -138 112 -216 185
-43 41 -84 80 -90 86 -111 114 -200 209 -233 249 -56 69 -143 201 -172 260
-13 28 -30 61 -37 75 -6 14 -17 51 -23 83 -6 32 -13 62 -16 68 -14 21 30 155
68 211 60 88 135 132 257 154 41 7 98 18 125 24 48 9 238 25 355 28 30 1 134
-3 230 -8z m7888 -407 c9 -23 9 -1329 0 -1338 -8 -8 -2255 -8 -2268 0 -11 7
-14 1338 -3 1348 3 4 514 7 1135 7 1065 0 1129 -1 1136 -17z m1902 -569 c0
-21 6 -37 14 -40 8 -3 18 -19 21 -35 4 -16 13 -29 21 -29 8 0 14 -7 14 -15 0
-27 -40 2 -56 41 -8 19 -19 34 -24 34 -6 0 -10 21 -10 46 0 27 4 43 10 39 6
-3 10 -22 10 -41z m-7500 -2399 c16 -8 36 -15 45 -15 8 0 32 -9 52 -20 21 -11
45 -20 53 -20 9 0 24 -6 35 -14 11 -7 36 -17 55 -21 19 -4 45 -13 57 -21 12
-8 33 -14 45 -14 13 0 40 -9 61 -20 20 -11 48 -20 62 -20 13 0 47 -9 75 -20
28 -11 62 -20 76 -20 14 0 38 -7 53 -14 15 -8 52 -18 82 -22 30 -4 68 -12 84
-19 17 -7 57 -15 90 -20 32 -4 70 -12 84 -17 14 -6 60 -16 101 -24 41 -7 100
-18 130 -24 30 -6 78 -16 105 -21 28 -6 77 -15 110 -20 33 -6 78 -14 100 -20
22 -5 74 -14 115 -20 41 -5 104 -16 140 -24 36 -8 101 -17 145 -21 44 -4 88
-11 99 -16 10 -6 65 -14 121 -19 57 -5 116 -14 131 -19 16 -6 82 -15 149 -20
66 -5 136 -14 155 -20 19 -6 103 -15 186 -20 83 -5 162 -13 175 -19 14 -5 93
-12 175 -16 82 -3 208 -12 279 -20 120 -14 904 -41 1090 -38 456 6 1015 26
1090 38 50 7 158 16 240 19 83 3 168 10 190 16 22 6 103 15 180 20 77 5 172
16 210 25 39 8 102 15 141 15 39 0 93 7 119 15 27 8 88 17 135 21 47 3 110 12
140 19 30 7 90 16 134 20 43 4 93 13 112 21 18 8 53 14 76 14 24 0 68 7 98 15
30 9 93 20 139 25 46 6 103 17 127 25 25 8 61 15 82 15 20 1 55 7 77 15 22 8
67 17 100 21 33 4 74 12 90 19 17 7 57 15 89 19 31 4 73 14 91 22 19 8 50 14
68 14 19 0 60 9 92 20 32 11 71 20 86 20 16 0 51 9 79 20 28 11 63 20 78 20
15 0 40 7 56 15 16 8 47 18 70 21 22 4 52 13 66 20 14 7 44 16 65 20 22 4 49
13 60 20 11 8 29 14 40 14 11 0 37 9 58 20 20 11 45 20 54 20 10 0 32 9 48 20
36 24 81 26 89 4 3 -9 6 -33 6 -54 0 -21 5 -51 11 -67 5 -15 14 -76 20 -134 5
-59 14 -120 19 -135 6 -15 15 -77 19 -138 5 -61 14 -124 20 -140 7 -16 16 -79
21 -140 5 -61 13 -126 19 -144 5 -18 13 -77 16 -130 4 -53 13 -122 20 -152 7
-30 16 -98 20 -150 3 -52 12 -120 20 -150 7 -30 16 -100 19 -155 4 -55 13
-127 21 -160 8 -33 15 -88 15 -122 0 -34 9 -107 20 -163 11 -56 20 -129 20
-163 0 -34 7 -89 15 -122 32 -134 9 -255 -63 -322 -43 -41 -132 -87 -187 -97
-21 -4 -47 -13 -59 -21 -12 -7 -41 -16 -66 -19 -24 -4 -50 -12 -56 -17 -7 -6
-37 -14 -66 -19 -29 -5 -73 -15 -98 -23 -66 -21 -126 -37 -207 -52 -40 -8 -80
-18 -90 -23 -10 -5 -41 -12 -70 -16 -28 -4 -68 -13 -87 -21 -19 -8 -49 -15
-66 -15 -17 0 -56 -9 -87 -20 -32 -11 -74 -20 -95 -20 -21 0 -55 -7 -75 -15
-20 -8 -70 -19 -113 -24 -42 -5 -85 -13 -96 -19 -10 -5 -50 -13 -89 -17 -38
-4 -88 -13 -110 -20 -22 -8 -72 -16 -112 -19 -39 -3 -84 -11 -100 -17 -15 -6
-69 -15 -118 -19 -50 -5 -117 -16 -150 -25 -32 -8 -87 -15 -120 -15 -34 0 -85
-7 -114 -16 -28 -8 -109 -19 -179 -24 -70 -5 -145 -14 -167 -19 -22 -6 -94
-13 -160 -17 -66 -3 -156 -12 -200 -19 -44 -8 -154 -17 -245 -20 -91 -4 -183
-11 -205 -16 -22 -5 -179 -14 -350 -19 -170 -6 -371 -14 -445 -20 -174 -13
-985 -13 -1115 1 -55 5 -244 14 -420 19 -176 6 -344 14 -373 19 -28 6 -118 13
-200 16 -81 4 -183 13 -227 20 -44 7 -132 16 -195 20 -63 3 -139 12 -170 19
-30 8 -101 17 -157 20 -56 3 -128 13 -160 21 -31 8 -85 15 -119 15 -33 0 -83
7 -110 15 -27 8 -83 18 -124 21 -41 3 -95 12 -120 19 -25 8 -79 17 -120 20
-41 4 -93 12 -115 20 -22 7 -70 16 -107 20 -36 3 -88 13 -114 21 -26 8 -64 14
-84 14 -21 0 -66 9 -100 20 -34 11 -79 20 -100 20 -21 0 -66 9 -100 20 -34 11
-78 20 -97 20 -19 0 -46 6 -61 14 -15 8 -54 17 -87 21 -33 4 -75 14 -94 21
-18 8 -45 14 -60 14 -14 1 -44 8 -66 16 -22 9 -65 20 -96 24 -30 5 -68 16 -85
25 -16 8 -42 15 -59 15 -16 0 -42 6 -57 14 -15 8 -52 20 -82 26 -31 6 -58 15
-61 20 -3 4 -21 11 -41 15 -20 3 -53 15 -73 26 -20 10 -40 19 -46 19 -22 0
-105 87 -129 135 -23 44 -26 62 -26 150 0 55 7 128 15 162 8 34 19 120 25 192
6 72 15 143 20 157 6 15 15 79 20 143 5 64 14 130 18 146 5 17 13 71 17 120 4
50 13 117 20 150 7 33 16 99 19 147 4 47 11 101 17 120 6 18 14 79 20 135 5
56 14 114 20 129 5 16 14 77 20 137 5 60 14 118 20 129 6 10 14 63 18 116 5
53 13 109 19 123 6 14 14 64 18 110 3 46 11 95 16 109 6 14 14 66 18 117 4 50
11 96 14 102 7 10 72 -11 136 -44z"/>
</g>
</svg>
